<?xml version="1.0" encoding="UTF-8"?>
<svg version="1.1" xmlns="http://www.w3.org/2000/svg" width="1080" height="1080">
<path d="M0 0 C356.4 0 712.8 0 1080 0 C1080 356.4 1080 712.8 1080 1080 C723.6 1080 367.2 1080 0 1080 C0 723.6 0 367.2 0 0 Z " fill="#000000" transform="translate(0,0)"/>
<path d="M0 0 C0.66 0 1.32 0 2 0 C2.41660889 0.73299316 2.83321777 1.46598633 3.26245117 2.22119141 C11.33174395 16.40801054 19.46050137 30.55149859 27.79296875 44.5859375 C32.99328855 53.34858034 38.10656195 62.1623043 43.23388672 70.96777344 C46.15328022 75.9800581 49.07681168 80.98992787 52 86 C55.46590232 91.94078976 58.93138086 97.88182426 62.39453125 103.82421875 C68.74834042 114.72479044 75.11654957 125.61676957 81.5 136.5 C88.45044933 148.34991449 95.38105772 160.21125249 102.29833984 172.08056641 C105.19752026 177.0545118 108.09888692 182.0271817 111 187 C112.16667678 188.9999941 113.33334346 190.99999409 114.5 193 C115.0775 193.99 115.655 194.98 116.25 196 C121.50000001 205.00000001 121.50000001 205.00000001 123.24926758 207.9987793 C124.41833519 210.00287191 125.58744339 212.00694085 126.7565918 214.01098633 C129.63685396 218.94817795 132.51645665 223.88575155 135.39453125 228.82421875 C141.74834042 239.72479044 148.11654957 250.61676957 154.5 261.5 C161.45044933 273.34991449 168.38105772 285.21125249 175.29833984 297.08056641 C178.19752026 302.0545118 181.09888692 307.0271817 184 312 C185.16667678 313.9999941 186.33334346 315.99999409 187.5 318 C188.36625 319.485 188.36625 319.485 189.25 321 C194.5 330 194.5 330 196.24926758 332.9987793 C197.41833519 335.00287191 198.58744339 337.00694085 199.7565918 339.01098633 C202.63685396 343.94817795 205.51645665 348.88575155 208.39453125 353.82421875 C214.74834042 364.72479044 221.11654957 375.61676957 227.5 386.5 C234.45044933 398.34991449 241.38105772 410.21125249 248.29833984 422.08056641 C251.19752025 427.05451179 254.09886195 432.02719628 257 437 C260.4658722 442.94080734 263.93138085 448.88182425 267.39453125 454.82421875 C274.10941917 466.34425582 280.84139241 477.85410887 287.58840942 489.35534668 C293.05610857 498.67602544 298.50863592 508.0053771 303.94189453 517.34619141 C306.85552888 522.34887865 309.79059537 527.33747212 312.7578125 532.30859375 C313.36463867 533.32703369 313.97146484 534.34547363 314.59667969 535.39477539 C315.7575646 537.34026169 316.92211677 539.28356572 318.09082031 541.22436523 C318.60483398 542.08618408 319.11884766 542.94800293 319.6484375 543.8359375 C320.10395996 544.59438965 320.55948242 545.3528418 321.02880859 546.13427734 C322 548 322 548 322 550 C300.52900562 550.04677248 279.05801967 550.08201455 257.58698463 550.10362434 C247.61705444 550.11392595 237.64715594 550.12796493 227.67724609 550.15087891 C218.98494901 550.17084696 210.29267489 550.18372455 201.60035551 550.18817699 C197.00014933 550.19077858 192.40000884 550.19687019 187.79982376 550.21146011 C183.46443033 550.22509802 179.12912927 550.22921015 174.79371643 550.22621536 C173.20793022 550.22676276 171.62214071 550.23070306 170.03637314 550.23841095 C145.77810885 550.35047654 127.14901091 541.80521255 109.890625 524.953125 C94.73010513 509.67492968 84.64178478 489.48696157 74 471 C72.76729118 468.86567509 71.53421671 466.73156132 70.30078125 464.59765625 C67.15843253 459.15873833 64.02195128 453.71645975 60.88671875 448.2734375 C59.0203162 445.0352484 57.15126237 441.79860562 55.28125 438.5625 C46.13779458 422.73655067 37.05553011 406.87636879 28 391 C27.96533219 392.36280284 27.96533219 392.36280284 28.65625 395.0859375 C34.63564848 424.546969 31.644154 456.33101583 15 482 C11.79142719 486.44014621 8.42428188 490.72499809 5 495 C4.34 495.85464844 3.68 496.70929688 3 497.58984375 C-5.19259366 508.12074019 -14.04746876 518.27854832 -25 526 C-26.35544922 526.96292969 -26.35544922 526.96292969 -27.73828125 527.9453125 C-74.02662472 558.5640611 -137.28266403 553.21911217 -190.33997345 553.12897491 C-192.86106872 553.12492192 -195.38216172 553.12245655 -197.90325928 553.12030029 C-238.66192351 553.08024972 -279.2937341 552.1116971 -320 550 C-318.57525583 545.54299923 -316.91024356 541.92002046 -314.4375 537.9375 C-313.62194111 536.60654366 -312.80831545 535.27440175 -311.99609375 533.94140625 C-311.52929199 533.17586426 -311.06249023 532.41032227 -310.58154297 531.62158203 C-307.3337794 526.23805545 -304.17409863 520.80215978 -301 515.375 C-300.26464021 514.11893504 -299.52920651 512.86291334 -298.79370117 511.60693359 C-297.28592783 509.03195334 -295.77853857 506.45674887 -294.27148438 503.88134766 C-290.59985448 497.60711065 -286.92548963 491.3344766 -283.25 485.0625 C-282.89365479 484.45436462 -282.53730957 483.84622925 -282.17016602 483.21966553 C-277.11377846 474.59157954 -272.03658334 465.97602712 -266.94335938 457.36962891 C-262.52732194 449.90293183 -258.13559095 442.42210155 -253.75 434.9375 C-253.3936145 434.32929413 -253.037229 433.72108826 -252.67004395 433.0944519 C-250.112808 428.72995941 -247.5563235 424.36502696 -245 420 C-242.08383953 415.02053669 -239.1673632 410.04125878 -236.25 405.0625 C-235.71493835 404.14934525 -235.71493835 404.14934525 -235.16906738 403.21774292 C-225.03718748 385.92902124 -225.03718748 385.92902124 -219.9543457 377.40917969 C-217.21806085 372.810966 -214.53325564 368.19032443 -211.92404175 363.51907349 C-210.4674767 360.91675543 -208.99422519 358.32404537 -207.52001953 355.73168945 C-206.81398133 354.47996047 -206.11551158 353.22392319 -205.42578125 351.96313477 C-200.23180253 342.47719487 -194.32043916 335.81834727 -186 329 C-185.30511475 328.42580322 -184.61022949 327.85160645 -183.89428711 327.26000977 C-182.20948317 325.91580769 -180.50024654 324.63242402 -178.75 323.375 C-177.81885376 322.70162598 -177.81885376 322.70162598 -176.86889648 322.01464844 C-169.90185994 317.07991851 -162.59070352 312.8921384 -155 309 C-154.39172363 308.68047363 -153.78344727 308.36094727 -153.15673828 308.03173828 C-134.34593756 298.319171 -113.00502381 294.50272324 -92 296 C-90.86594727 296.07033447 -90.86594727 296.07033447 -89.70898438 296.14208984 C-58.26351874 298.2748047 -28.74497803 315.0305377 -6.05859375 336.15234375 C-3.93638507 338.14565631 -3.93638507 338.14565631 -1 340 C-1.83917969 338.59427734 -1.83917969 338.59427734 -2.6953125 337.16015625 C-8.41927663 327.52396376 -13.94567333 317.78775327 -19.40283203 307.99829102 C-23.88385932 299.96903396 -28.42740545 291.97726719 -33 284 C-39.83085964 272.07797685 -46.56937593 260.10614554 -53.26464844 248.10742188 C-55.6551603 243.8268317 -58.0526013 239.55014149 -60.45092773 235.27392578 C-61.64013753 233.15113223 -62.82718848 231.02712768 -64.01196289 228.90185547 C-66.61100949 224.24136872 -69.22441329 219.59424351 -71.92578125 214.9921875 C-84.10965454 194.065654 -88.81311871 170.92557281 -83 147 C-78.34512571 130.45368216 -69.19556367 116.11160865 -60.07714844 101.71386719 C-55.01119182 93.6929779 -50.15203082 85.56965315 -45.375 77.375 C-44.83865433 76.45521362 -44.83865433 76.45521362 -44.29147339 75.5168457 C-42.87070879 73.07938902 -41.45066871 70.64151343 -40.0320282 68.20281982 C-36.73477768 62.53648135 -33.40271906 56.89108136 -30.0625 51.25 C-29.01035397 49.47139125 -27.95826853 47.69274666 -26.90625 45.9140625 C-26.41382813 45.08165039 -25.92140625 44.24923828 -25.4140625 43.39160156 C-23.29333319 39.8048156 -21.17685209 36.21554798 -19.0625 32.625 C-18.67715088 31.97249268 -18.29180176 31.31998535 -17.89477539 30.64770508 C-15.34504638 26.32056303 -12.83480341 21.97225442 -10.33984375 17.61328125 C-9.38742798 15.9578833 -9.38742798 15.9578833 -8.41577148 14.26904297 C-7.15260379 12.07238357 -5.8954565 9.87224965 -4.64477539 7.66845703 C-4.07106201 6.67313965 -3.49734863 5.67782227 -2.90625 4.65234375 C-2.13764648 3.30644165 -2.13764648 3.30644165 -1.35351562 1.93334961 C-0.68352539 0.97634155 -0.68352539 0.97634155 0 0 Z " fill="#FEFEFE" transform="translate(539,255)"/>
</svg>
